<svg id="b847c0d8-de26-4ae3-b269-ef35a8ef771f" xmlns="http://www.w3.org/2000/svg" xmlns:xlink="http://www.w3.org/1999/xlink" viewBox="0 0 1129.98 831.55"><defs><style>.cls-1,.cls-8{fill:#7971ea;}.cls-1,.cls-12,.cls-3,.cls-5{opacity:0.1;}.cls-1,.cls-13,.cls-3,.cls-5,.cls-8,.cls-9{isolation:isolate;}.cls-2{fill:#d0d2d5;}.cls-13,.cls-4{fill:#444053;}.cls-5,.cls-6{fill:#2db4e2;}.cls-7{fill:#fff;}.cls-8{opacity:0.3;}.cls-14,.cls-9{fill:#3f3d56;}.cls-9{opacity:0.2;}.cls-10{fill:#ee8e9e;}.cls-11{fill:#454b69;}.cls-13{opacity:0.6;}.cls-15{fill:url(#linear-gradient);}.cls-16{fill:#a26565;}.cls-17{fill:#efb7b9;}</style><linearGradient id="linear-gradient" x1="321.65" y1="-23.15" x2="321.65" y2="386.82" gradientTransform="matrix(1, 0, 0, -1, -35, 799.78)" gradientUnits="userSpaceOnUse"><stop offset="0" stop-color="gray" stop-opacity="0.25"/><stop offset="0.54" stop-color="gray" stop-opacity="0.12"/><stop offset="1" stop-color="gray" stop-opacity="0.1"/></linearGradient></defs><title>undraw_youtube_tutorial</title><path class="cls-1" d="M656.54,124.69C584.1,122.18,515.1,98.78,449.22,73.2S318.07,19.27,247.37,5.71C201.89-3,149.88-4.22,113.24,20.14,78,43.6,66.58,84.14,60.46,121.69c-4.61,28.28-7.32,58,5.3,84.51,8.77,18.37,24.34,33.82,35.11,51.42,37.45,61.26,11,136.79-29.62,196.59-19,28.06-41.13,54.82-55.82,84.69S-6.06,603,6.79,633.44c12.75,30.2,43.11,52.88,76,68.83C149.6,734.67,228.33,744,305.1,749.2c170,11.58,340.8,6.58,511.19,1.58,63.06-1.87,126.39-3.76,188.43-13.51,34.44-5.41,70-14,95-34.75,31.75-26.34,39.62-70.94,18.34-104-35.68-55.39-134.35-69.15-159.29-128.6-13.73-32.72.37-69.17,20.32-99.52,42.8-65.11,114.54-122.22,118.32-196.64,2.6-51.11-31.89-102.3-85.21-126.48-55.9-25.35-133.4-22.16-174.64,19.8C795.12,110.29,720.5,126.91,656.54,124.69Z" transform="translate(0 -0.01)"/><polygon class="cls-2" points="664.18 755.88 469.18 753.38 469.75 748.38 479.18 665.88 650.43 665.88 663.03 748.38 663.99 754.63 664.18 755.88"/><polygon class="cls-3" points="663.99 754.63 566.68 754.63 469.18 753.38 469.75 748.38 663.03 748.38 663.99 754.63"/><rect class="cls-2" x="436.68" y="749.63" width="258.75" height="6.25"/><path class="cls-4" d="M942.3,170.37A16.26,16.26,0,0,0,926.11,154H203.5a16.26,16.26,0,0,0-16.2,16.34h0v438h755Z" transform="translate(0 -0.01)"/><path class="cls-2" d="M187.3,604v51.3a16.2,16.2,0,0,0,16.2,16.2H926.11a16.21,16.21,0,0,0,16.19-16.2V604Z" transform="translate(0 -0.01)"/><rect class="cls-5" x="218.55" y="181.51" width="696.25" height="393.75"/><path class="cls-6" d="M568.55,652.05a16.89,16.89,0,0,0,13.28-6.44h0a16.79,16.79,0,0,0,1.31-1.93l-9.26-1.52,10,.08a16.83,16.83,0,0,0,.32-13.38l-13.43,7,12.39-9.1a16.87,16.87,0,0,0-29.15,17,16.08,16.08,0,0,0,1.28,1.89h0A16.84,16.84,0,0,0,568.55,652.05Z" transform="translate(0 -0.01)"/><polygon class="cls-3" points="585.43 671.51 663.22 749.63 651.29 671.51 585.43 671.51"/><rect class="cls-7" x="239" y="252.55" width="457" height="274" rx="2.6"/><rect class="cls-7" x="219" y="181.55" width="696" height="23"/><rect class="cls-6" x="222" y="185.55" width="20" height="14" rx="0.78"/><rect class="cls-8" x="460" y="185.55" width="210" height="14" rx="0.58"/><path class="cls-4" d="M663.77,194h-.51l-.19-.16a4.22,4.22,0,0,0,1-2.72,4.14,4.14,0,1,0-4.13,4.17,4.28,4.28,0,0,0,2.72-1l.19.16V195l3.2,3.2,1-1Zm-3.84,0a2.89,2.89,0,1,1,2.88-2.9v0A2.86,2.86,0,0,1,660,194Z" transform="translate(0 -0.01)"/><circle class="cls-6" cx="905" cy="192.55" r="7"/><rect class="cls-7" x="729" y="229.55" width="65" height="44" rx="2.43"/><rect class="cls-7" x="811" y="229.55" width="84" height="7" rx="0.61"/><rect class="cls-7" x="811" y="244.55" width="84" height="7" rx="0.61"/><rect class="cls-7" x="811" y="259.55" width="84" height="7" rx="0.61"/><rect class="cls-7" x="729" y="298.55" width="65" height="44" rx="2.43"/><rect class="cls-7" x="811" y="298.55" width="84" height="7" rx="0.61"/><rect class="cls-7" x="811" y="313.55" width="84" height="7" rx="0.61"/><rect class="cls-7" x="811" y="328.55" width="84" height="7" rx="0.66"/><rect class="cls-7" x="729" y="367.55" width="65" height="44" rx="2.43"/><rect class="cls-7" x="811" y="367.55" width="84" height="7" rx="0.66"/><rect class="cls-7" x="811" y="382.55" width="84" height="7" rx="0.66"/><rect class="cls-7" x="811" y="397.55" width="84" height="7" rx="0.66"/><rect class="cls-7" x="729" y="436.55" width="65" height="44" rx="2.43"/><rect class="cls-7" x="811" y="436.55" width="84" height="7" rx="0.66"/><rect class="cls-7" x="811" y="451.55" width="84" height="7" rx="0.66"/><rect class="cls-7" x="811" y="466.55" width="84" height="7" rx="0.66"/><rect class="cls-7" x="729" y="505.55" width="65" height="44" rx="2.43"/><rect class="cls-7" x="811" y="505.55" width="84" height="7" rx="0.66"/><rect class="cls-7" x="811" y="520.55" width="84" height="7" rx="0.66"/><rect class="cls-7" x="811" y="535.55" width="84" height="7" rx="0.66"/><rect class="cls-1" x="304.92" y="325.16" width="102.83" height="5.33"/><rect class="cls-1" x="314.06" y="296.98" width="9.9" height="28.18"/><rect class="cls-1" x="328.53" y="296.98" width="9.9" height="28.18"/><rect class="cls-1" x="343" y="296.98" width="9.9" height="28.18"/><rect class="cls-1" x="357.47" y="296.98" width="9.9" height="28.18"/><rect class="cls-1" x="371.94" y="296.98" width="9.9" height="28.18"/><rect class="cls-1" x="386.42" y="296.98" width="9.9" height="28.18"/><rect class="cls-1" x="314.06" y="302.31" width="9.9" height="3.05"/><rect class="cls-1" x="328.53" y="302.31" width="9.9" height="3.05"/><rect class="cls-1" x="343" y="302.31" width="9.9" height="3.05"/><rect class="cls-1" x="357.47" y="302.31" width="9.9" height="3.05"/><rect class="cls-1" x="371.94" y="302.31" width="9.9" height="3.05"/><rect class="cls-1" x="386.42" y="302.31" width="9.9" height="3.05"/><rect class="cls-1" x="314.06" y="316.02" width="9.9" height="3.05"/><rect class="cls-1" x="328.53" y="316.02" width="9.9" height="3.05"/><rect class="cls-1" x="343" y="316.02" width="9.9" height="3.05"/><rect class="cls-1" x="357.47" y="316.02" width="9.9" height="3.05"/><rect class="cls-1" x="371.94" y="316.02" width="9.9" height="3.05"/><rect class="cls-1" x="386.42" y="316.02" width="9.9" height="3.05"/><rect class="cls-1" x="530.37" y="338.87" width="102.83" height="5.33"/><rect class="cls-1" x="539.51" y="310.69" width="9.9" height="28.18"/><rect class="cls-1" x="553.98" y="310.69" width="9.9" height="28.18"/><rect class="cls-1" x="568.45" y="310.69" width="9.9" height="28.18"/><rect class="cls-1" x="582.93" y="310.69" width="9.9" height="28.18"/><rect class="cls-1" x="597.4" y="310.69" width="9.9" height="28.18"/><rect class="cls-1" x="611.87" y="310.69" width="9.9" height="28.18"/><rect class="cls-1" x="539.51" y="316.02" width="9.9" height="3.05"/><rect class="cls-1" x="553.98" y="316.02" width="9.9" height="3.05"/><rect class="cls-1" x="568.45" y="316.02" width="9.9" height="3.05"/><rect class="cls-1" x="582.93" y="316.02" width="9.9" height="3.05"/><rect class="cls-1" x="597.4" y="316.02" width="9.9" height="3.05"/><rect class="cls-1" x="611.87" y="316.02" width="9.9" height="3.05"/><rect class="cls-1" x="539.51" y="329.73" width="9.9" height="3.05"/><rect class="cls-1" x="553.98" y="329.73" width="9.9" height="3.05"/><rect class="cls-1" x="568.45" y="329.73" width="9.9" height="3.05"/><rect class="cls-1" x="582.93" y="329.73" width="9.9" height="3.05"/><rect class="cls-1" x="597.4" y="329.73" width="9.9" height="3.05"/><rect class="cls-1" x="611.87" y="329.73" width="9.9" height="3.05"/><rect class="cls-1" x="530.37" y="377.71" width="102.83" height="5.33"/><rect class="cls-1" x="539.51" y="349.53" width="9.9" height="28.18"/><rect class="cls-1" x="553.98" y="349.53" width="9.9" height="28.18"/><rect class="cls-1" x="568.45" y="349.53" width="9.9" height="28.18"/><rect class="cls-1" x="582.93" y="349.53" width="9.9" height="28.18"/><rect class="cls-1" x="597.4" y="349.53" width="9.9" height="28.18"/><rect class="cls-1" x="611.87" y="349.53" width="9.9" height="28.18"/><rect class="cls-1" x="539.51" y="354.86" width="9.9" height="3.05"/><rect class="cls-1" x="553.98" y="354.86" width="9.9" height="3.05"/><rect class="cls-1" x="568.45" y="354.86" width="9.9" height="3.05"/><rect class="cls-1" x="582.93" y="354.86" width="9.9" height="3.05"/><rect class="cls-1" x="597.4" y="354.86" width="9.9" height="3.05"/><rect class="cls-1" x="611.87" y="354.86" width="9.9" height="3.05"/><rect class="cls-1" x="539.51" y="368.57" width="9.9" height="3.05"/><rect class="cls-1" x="553.98" y="368.57" width="9.9" height="3.05"/><rect class="cls-1" x="568.45" y="368.57" width="9.9" height="3.05"/><rect class="cls-1" x="582.93" y="368.57" width="9.9" height="3.05"/><rect class="cls-1" x="597.4" y="368.57" width="9.9" height="3.05"/><rect class="cls-1" x="611.87" y="368.57" width="9.9" height="3.05"/><path class="cls-1" d="M368,385.44a28,28,0,0,1-2.1-3.09l14.81-2.43-16,.12a27.06,27.06,0,0,1-.52-21.38l21.45,11.12-19.81-14.56a27,27,0,1,1,44.57,30.2,25.86,25.86,0,0,1,3.08,4.92l-19.22,10,20.49-6.87a27,27,0,0,1-4.35,25.31,27,27,0,1,1-42.4,0,27,27,0,0,1,0-33.37Z" transform="translate(0 -0.01)"/><path class="cls-1" d="M416.18,402.12a26.92,26.92,0,0,1-5.78,16.66,27,27,0,1,1-42.4,0C364.37,414.21,416.18,399.09,416.18,402.12Z" transform="translate(0 -0.01)"/><path class="cls-9" d="M393.52,469.66a1.59,1.59,0,0,1,.13.22h-9.16c.05-.07.08-.15.13-.22a8.81,8.81,0,0,1-1.18-4.51A9.33,9.33,0,0,1,384,462h0c.51.08,1.14.17,1.87.25a32.49,32.49,0,0,0,6.39,0q.92-.09,1.89-.24v0a9,9,0,0,1,.54,3.13A8.86,8.86,0,0,1,393.52,469.66Z" transform="translate(0 -0.01)"/><path class="cls-1" d="M360.6,469.88h-51c-.11-.29-.21-.6-.3-.9a26.82,26.82,0,0,1,.59-17.64A27,27,0,0,1,300,419.45a26.05,26.05,0,0,1-2.91-2.33l13.42-6.69-15.26,4.84a27,27,0,0,1-6.8-20.27l23.81,4.3-23.22-8.07a27,27,0,0,1,52.74,11.61,28,28,0,0,1-1.25,4.09,27.08,27.08,0,0,1,4.43,3.85L329.58,426l17.55-12.62a27,27,0,0,1,3.32,25.5A27,27,0,0,1,360.6,469.88Z" transform="translate(0 -0.01)"/><path class="cls-1" d="M360.6,469.88h-51c-.11-.29-.21-.6-.3-.9a26.82,26.82,0,0,1,.59-17.64c-4.8-3.32,40.23-33.07,41.12-30.17a26.85,26.85,0,0,1-.59,17.65A27,27,0,0,1,360.6,469.88Z" transform="translate(0 -0.01)"/><path class="cls-1" d="M591.35,433.34a26.92,26.92,0,0,1-13.51,11.36,27.43,27.43,0,0,1,.11,5.8l-21.61-1.3,21.11,4.58a27,27,0,0,1-3.22,8.16,26.64,26.64,0,0,1-7.2,7.9H537.61v.77h-30c.06-.26.12-.51.19-.77a27,27,0,0,1,16.45-18.31,27,27,0,0,1,17.13-28.64,27.36,27.36,0,0,1-.22-3.73l14,5.51-13.8-8.11A27,27,0,0,1,551.9,398l12.71,20.58-9.53-22.66a27,27,0,0,1,36.27,37.44Z" transform="translate(0 -0.01)"/><path class="cls-1" d="M574.23,462a26.64,26.64,0,0,1-7.2,7.9H537.61v.77h-30c.06-.26.12-.51.19-.77a27,27,0,0,1,16.45-18.31c-.25-2,5.56-1.7,13.31-.4C552.75,453.72,575.26,460.26,574.23,462Z" transform="translate(0 -0.01)"/><path class="cls-10" d="M446.71,390s3.7,20-4.56,26.53,7,45.67,32.18,41.1,35.44-37.4,35.44-37.4S484.55,415,493.9,388.45Z" transform="translate(0 -0.01)"/><path class="cls-3" d="M446.71,390s3.7,20-4.56,26.53,7,45.67,32.18,41.1,35.44-37.4,35.44-37.4S484.55,415,493.9,388.45Z" transform="translate(0 -0.01)"/><circle class="cls-10" cx="469" cy="362.89" r="41.75"/><path class="cls-6" d="M537.61,442.27v28.38H399.75V443.56a17.48,17.48,0,0,1,10.67-16.1l3.95-1.68c10-4.26,22.15-9.55,26.12-11.75a6.87,6.87,0,0,0,1.22-.79c2.17-2.17,1.74.65,1.74.65s-.06.54-.1,1.47c-.24,6.39.68,31.5,30.11,29.41,28.71-2,30-21.42,29.71-27.13,0-.53-.06-1.06-.13-1.58a36.88,36.88,0,0,1,5.81,1.9c6,2.22,14.86,5.78,17.23,7.46.74.52,1.64,1.06,2.62,1.61a17.3,17.3,0,0,1,3.1,2.21A17.51,17.51,0,0,1,537.61,442.27Z" transform="translate(0 -0.01)"/><path class="cls-3" d="M508.85,418c-2.43,11.26-10.06,32.35-37.56,32.9-29.3.58-31-28.56-30.81-36.83a6.13,6.13,0,0,0,1.23-.79c2.18-2.17,1.74.65,1.74.65s-3.69,33.27,30,30.88S503,416.07,503,416.07A41.08,41.08,0,0,1,508.85,418Z" transform="translate(0 -0.01)"/><path class="cls-11" d="M419.58,365a7.14,7.14,0,0,1,7.53,2.75c1.52,2.13,1.75,4.7,1.94,7.16,1.81.38,2.83-1.67,3-3.22.67-6.31.72-12.74,2.84-18.84s6.75-12,13.86-14.33a16.09,16.09,0,0,1,7.57-.72c1.51.25,2.93.78,4.43,1,5.2.86,10.85-1.6,15.72.11,3.06,1.08,5,3.57,6.43,6.06a13.14,13.14,0,0,0,2.5,3.63c2.07,1.86,5.31,2.34,8.28,2.92s6.21,1.59,7.48,3.88c1.14,2.07.3,4.46-.08,6.7a16.43,16.43,0,0,0,1.69,10.37c.55,1,1.67,2.21,3,1.88a2.61,2.61,0,0,0,1.42-1.15c3.41-4.78,3.32-11,7.6-15.31,1.43-1.44,3.28-2.56,4.67-4a9.06,9.06,0,0,0,2.42-8.24c-.77-3.3-3.41-6-5.54-8.9a35,35,0,0,1-5.93-12.31,2.24,2.24,0,0,1,0-1.61,4.16,4.16,0,0,1,1.52-1.24,5.74,5.74,0,0,0,1.94-7.33c-1.21-2.47-3.87-4.35-6.87-5.47a44.7,44.7,0,0,0-9.37-2c-2.1.3-4.56-.89-5.21-2.57-.29-.75-.29-1.56-.58-2.31a5.31,5.31,0,0,0-4-2.8,11.68,11.68,0,0,0-5.35.38c-2,.56-4.27,1.4-6,.42-.91-.51-1.41-1.44-2.39-1.86-2-.84-4.06.86-5.49,2.26a13.33,13.33,0,0,1-4.95,3.33,7.34,7.34,0,0,1-6.14-.41c-1.37-.87-2.06-2.27-3.15-3.38a11.82,11.82,0,0,0-7.45-3,26.26,26.26,0,0,0-8.41.92,50.54,50.54,0,0,0-14.77,6.2,15.83,15.83,0,0,0-5.67,5.27,12.07,12.07,0,0,0-1.27,5.43c-.22,5.91,1.74,12.13,6.85,16.27-3.12,1.3-4.17,4.49-4.9,7.32-1.17,4.52-2.34,9.11-1.9,13.71.22,2.38.87,4.76.52,7.13a15.72,15.72,0,0,0-.46,3.41A3.27,3.27,0,0,0,419.58,365Z" transform="translate(0 -0.01)"/><g class="cls-12"><path d="M521.23,343.78a9.83,9.83,0,0,1-1.8,2.66c-1.39,1.46-3.24,2.59-4.67,4-4.28,4.28-4.19,10.54-7.6,15.32a2.55,2.55,0,0,1-1.42,1.14c-1.3.34-2.42-.84-3-1.88a17.36,17.36,0,0,1-1.49-4l-.2,1a16.43,16.43,0,0,0,1.69,10.37c.55,1,1.67,2.21,3,1.88a2.61,2.61,0,0,0,1.42-1.15c3.41-4.78,3.32-11,7.6-15.31,1.43-1.44,3.28-2.56,4.67-4a9.06,9.06,0,0,0,2.42-8.24A10.54,10.54,0,0,0,521.23,343.78Z" transform="translate(0 -0.01)"/><path d="M511.91,314.18a4.16,4.16,0,0,0-1.52,1.24,2.21,2.21,0,0,0,0,1.6,33.36,33.36,0,0,0,1.51,4.56h0a5.74,5.74,0,0,0,1.94-7.33,7,7,0,0,0-.7-1.17A6.13,6.13,0,0,1,511.91,314.18Z" transform="translate(0 -0.01)"/><path d="M423.71,323.45a18.54,18.54,0,0,1-6.55-11.59,15.62,15.62,0,0,0-.3,2.72A20.81,20.81,0,0,0,420.15,327,7,7,0,0,1,423.71,323.45Z" transform="translate(0 -0.01)"/><path d="M501.08,354.72c.38-2.25,1.22-4.64.08-6.7-1.27-2.3-4.51-3.3-7.48-3.88s-6.21-1.07-8.28-2.92a13.14,13.14,0,0,1-2.5-3.63c-1.41-2.49-3.37-5-6.43-6.06-4.87-1.71-10.52.74-15.72-.11-1.5-.25-2.92-.77-4.43-1a16.09,16.09,0,0,0-7.57.72c-7.11,2.34-11.74,8.24-13.86,14.33s-2.17,12.52-2.84,18.84c-.17,1.54-1.19,3.6-3,3.22-.19-2.47-.42-5-1.94-7.17a7.15,7.15,0,0,0-7.53-2.74,3.68,3.68,0,0,1-2.11-1.35,11.58,11.58,0,0,1,0,2.76,15.72,15.72,0,0,0-.46,3.41,3.26,3.26,0,0,0,2.61,2.57,7.14,7.14,0,0,1,7.53,2.75c1.52,2.13,1.75,4.7,1.94,7.16,1.81.38,2.83-1.67,3-3.22.67-6.31.72-12.74,2.84-18.84s6.75-12,13.86-14.33a16.09,16.09,0,0,1,7.57-.72c1.51.25,2.93.78,4.43,1,5.2.86,10.85-1.6,15.72.11,3.06,1.08,5,3.57,6.43,6.06a13.14,13.14,0,0,0,2.5,3.63c2.07,1.86,5.31,2.34,8.28,2.92s6,1.52,7.33,3.64A.86.86,0,0,1,501.08,354.72Z" transform="translate(0 -0.01)"/><path d="M417.43,351.61a19.29,19.29,0,0,0-.33-5.57,24.8,24.8,0,0,0-.19,5.84,10.63,10.63,0,0,0,.18,1.49C417.2,352.78,417.35,352.2,417.43,351.61Z" transform="translate(0 -0.01)"/></g><path class="cls-4" d="M368.49,511V493a.51.51,0,0,1,.51-.51h2.05a.51.51,0,0,1,.51.51h0v7.51l8.32-7.71a1.37,1.37,0,0,1,1.92.17,1.42,1.42,0,0,1,.31.83V510.1a1.35,1.35,0,0,1-1.4,1.31,1.37,1.37,0,0,1-.83-.31l-8.32-7.66v7.47a.51.51,0,0,1-.51.51H369A.51.51,0,0,1,368.49,511Z" transform="translate(0 -0.01)"/><path class="cls-4" d="M569.52,493V511a.51.51,0,0,1-.51.51h-2a.51.51,0,0,1-.51-.51h0v-7.51l-8.32,7.7a1.37,1.37,0,0,1-1.93-.19,1.33,1.33,0,0,1-.31-.81V493.78a1.37,1.37,0,0,1,2.24-1l8.32,7.66V493a.51.51,0,0,1,.51-.51h2A.52.52,0,0,1,569.52,493Z" transform="translate(0 -0.01)"/><path class="cls-4" d="M465.61,511.78h-4.07a2,2,0,0,1-2-2V494.84a2,2,0,0,1,2-2h4.07a2,2,0,0,1,2,2v14.94A2,2,0,0,1,465.61,511.78Zm12.9-2V494.84a2,2,0,0,0-2-2H472.4a2,2,0,0,0-2,2v14.94a2,2,0,0,0,2,2h4.07a2,2,0,0,0,2-2Z" transform="translate(0 -0.01)"/><rect class="cls-13" x="349" y="468.61" width="240" height="2.67"/><circle class="cls-4" cx="423.11" cy="469.94" r="6.33"/><rect class="cls-4" x="349" y="468.61" width="74.11" height="2.67"/><ellipse class="cls-6" cx="957.08" cy="758.53" rx="59.47" ry="11.44"/><ellipse class="cls-14" cx="956.09" cy="753.67" rx="6.92" ry="9.06"/><ellipse class="cls-14" cx="956.09" cy="742.59" rx="6.92" ry="9.06"/><ellipse class="cls-14" cx="956.09" cy="731.53" rx="6.92" ry="9.06"/><ellipse class="cls-14" cx="956.09" cy="720.44" rx="6.92" ry="9.06"/><ellipse class="cls-14" cx="956.09" cy="709.36" rx="6.92" ry="9.06"/><ellipse class="cls-14" cx="956.09" cy="698.28" rx="6.92" ry="9.06"/><ellipse class="cls-14" cx="956.09" cy="687.2" rx="6.92" ry="9.06"/><path class="cls-6" d="M982,611.41a34.78,34.78,0,0,0,2.58-3.8l-18.2-3,19.68.15a33.25,33.25,0,0,0,.63-26.28l-26.38,13.7,24.34-17.89a33.17,33.17,0,1,0-57.43,33.22,34.3,34.3,0,0,0,2.65,3.9,33.67,33.67,0,0,0-3.78,6l23.62,12.27-25.18-8.45a33.2,33.2,0,0,0,5.34,31.14,33.16,33.16,0,1,0,52.14,0,33.19,33.19,0,0,0,0-41Z" transform="translate(0 -0.01)"/><path class="cls-3" d="M922.78,631.91a33,33,0,0,0,7.09,20.5,33.16,33.16,0,1,0,52.14,0C986.45,646.78,922.78,628.19,922.78,631.91Z" transform="translate(0 -0.01)"/><ellipse class="cls-1" cx="290" cy="810.55" rx="99" ry="21"/><path class="cls-15" d="M323.15,808.12c-2-.73-4.14-.61-6.23-.84a19.26,19.26,0,0,1-11.46-5.56,20.93,20.93,0,0,1-4.58-7c.66.24,1.32.49,2,.76-2-4.67.1-9.91,1.94-14.63q4.68-12,8.85-24.13c7-20.49,13-41.8,12.87-63.6,0-7.88-1.45-15.33-1.73-23.2-.21-5.84.69-11.67.65-17.52,0-.82,0-1.63-.06-2.45a15.52,15.52,0,0,0,5.27-12.66,30.2,30.2,0,0,0-.53-3.68,58.32,58.32,0,0,0-1.4-6.26c-.66-2.17-1.56-4.25-2.33-6.37-1.49-4.11-2.5-8.39-3.77-12.57a4.29,4.29,0,0,1,1.36.37,3,3,0,0,1-.64-1.31,32.28,32.28,0,0,1-1.2-8.17l.85-.38a21.4,21.4,0,0,0-.41-8.09c.48-4.29,1.23-8.61,1.69-12.88.17-1.6.1-3.61-1.37-4-.3-2.29-.42-4.61-.54-6.92q-.63-12.09-1.25-24.17c-.42-8.09-.84-16.17-1-24.27-.11-5.14-.17-10.46-1.39-15.38a18.61,18.61,0,0,0-.71-7c-1.86-5.89-7.64-10.56-13.5-10.23a26.85,26.85,0,0,0-6.39-6.46c1.17-2.62,2.57-5.32,3.72-7.44,9.38-3.05,16.24-12.3,16.24-23.3a25.48,25.48,0,0,0-2.75-11.59,12.52,12.52,0,0,0,.44-1.35,11.07,11.07,0,0,0-.45-6.49,19.78,19.78,0,0,0-1-2.32c-.26-.5-.54-1-.83-1.48l-.51-.77a14.38,14.38,0,0,0-1-1.36,33.1,33.1,0,0,0-2.28-2.74,22.17,22.17,0,0,0-3.28-2.92,14.47,14.47,0,0,0-5.4-2.49,16.46,16.46,0,0,0-3.43-.31c-.69,0-1.39,0-2.08.06-1.4.08-2.79.18-4.18.17a9.25,9.25,0,0,1-1.39-.07,50.86,50.86,0,0,1-7.24-1.51l-1.2-.25c-.41-.08-.81-.15-1.22-.2A22.89,22.89,0,0,0,277,413h-1.11a30.68,30.68,0,0,0-3.31.34l-1.1.17a31.48,31.48,0,0,0-8.05,2.39c-.33.15-.67.32-1,.5l-.2.11c-.27.14-.54.29-.8.45l-.15.09-.85.54-.07.05c-7.94,5.34-12.63,15.46-13.82,25.5-1.33,11.27,1,22.63,3.33,33.72l2.1,10c.09.45.19.89.28,1.34a22,22,0,0,0-6.59,9.14c-2,5-2.05,10.41-1.89,15.83,0,1.1.06,2.2.17,3.3-.25,2.08-.47,4.17-.61,6.27-.63,9.7.55,19.45.24,29.17-.24,7.49-1.37,15-.82,22.44.48,6.6,2.25,13,4,19.37l2.52,9.08a2.41,2.41,0,0,0,.63,1.25,1.9,1.9,0,0,0,1.41.29,84.75,84.75,0,0,0-4.1,11.48,35.63,35.63,0,0,0-1.48,7.38c-.33,4.58.73,9.13,1.79,13.58q2.4,10,4.78,20.08,1.68,7,3.35,14.09c2.2,9.26,4.41,18.58,4.82,28.11a61.13,61.13,0,0,1-1,14.29,124.76,124.76,0,0,0-1.24,42.83,210.69,210.69,0,0,0,8.09,35.41c.81-.43,1.63-.83,2.47-1.2l-.35.65q-1.73,3-3.2,6.15a35,35,0,0,0-1.71,4.21c-1.28,4-1.48,8.26-1.66,12.47a6.13,6.13,0,0,0,.21,2.41c.55,1.51,2.13,2.28,3.6,2.7,4.32,1.23,8.81.79,13.3.21a1.4,1.4,0,0,0,.09.29c.55,1.51,2.12,2.28,3.6,2.7,6.18,1.76,12.7.1,19.07-.5s12.63-.16,18.76-1.63a9,9,0,0,0,2.6-1,8.51,8.51,0,0,0,3.28-4.55,5.93,5.93,0,0,0,.38-1.49C327,810.78,325.13,808.85,323.15,808.12ZM302,715.51a25.07,25.07,0,0,1-2,6.78,129.36,129.36,0,0,0-10.26,32.17,149.69,149.69,0,0,0-2.27,22.25c-.1,5.5.11,11.26-2.18,16.2l.83-.13c-.26.48-.51,1-.75,1.38l-.12.22a21.64,21.64,0,0,1-2.73-7.66c0-.09-.45-.16-1.14-.2a206.61,206.61,0,0,1-2.92-47.89,21.92,21.92,0,0,1,.8-5.75c.51-1.61,1.37-3.08,2-4.64a34,34,0,0,0,2-8.14,115.64,115.64,0,0,0,1.26-21.52c-.24-6.79,1.33-13.54,2.67-20.3.64-3.21,1.23-6.43,1.55-9.65l.06-.65a96.85,96.85,0,0,1,12.28,31.88A45.52,45.52,0,0,1,302,715.51ZM259.2,571l.32.28a21.26,21.26,0,0,1,2.66,2.79,3.69,3.69,0,0,1,.84,1.54c.3,1.46-.91,2.7-1.9,3.77a17,17,0,0,0-1.21,1.46q-.32-4.92-.68-9.84Z" transform="translate(0 -0.01)"/><path class="cls-6" d="M245.36,508.31l-1.1,8.49c-.37,2.88-.74,5.75-.94,8.64-.67,9.62.57,19.28.25,28.92-.26,7.42-1.44,14.83-.87,22.24.51,6.54,2.37,12.9,4.23,19.2l2.64,9a2.39,2.39,0,0,0,.66,1.24,2.32,2.32,0,0,0,1.69.27l11.72-1.06c-.75-3.44-1.58-7-2-10.53-.32-2.76-.51-5.54-.71-8.32-.62-8.66-1.33-17.32-2-26l-1.25-15.2c-.53-6.6-1.08-13.23-2.74-19.64A39.14,39.14,0,0,0,245.36,508.31Z" transform="translate(0 -0.01)"/><path class="cls-3" d="M245.36,508.31l-1.1,8.49c-.37,2.88-.74,5.75-.94,8.64-.67,9.62.57,19.28.25,28.92-.26,7.42-1.44,14.83-.87,22.24.51,6.54,2.37,12.9,4.23,19.2l2.64,9a2.39,2.39,0,0,0,.66,1.24,2.32,2.32,0,0,0,1.69.27l11.72-1.06c-.75-3.44-1.58-7-2-10.53-.32-2.76-.51-5.54-.71-8.32-.62-8.66-1.33-17.32-2-26l-1.25-15.2c-.53-6.6-1.08-13.23-2.74-19.64A39.14,39.14,0,0,0,245.36,508.31Z" transform="translate(0 -0.01)"/><path class="cls-16" d="M266.24,797.33a35.09,35.09,0,0,0-1.8,4.18c-1.34,4-1.54,8.19-1.74,12.36a6,6,0,0,0,.22,2.39c.58,1.5,2.24,2.26,3.79,2.67,6.49,1.75,13.33.11,20-.49s13.26-.16,19.7-1.61a9.84,9.84,0,0,0,2.73-1,8.5,8.5,0,0,0,3.45-4.5,5.77,5.77,0,0,0,.39-1.48c.21-2.2-1.7-4.1-3.78-4.82s-4.35-.61-6.54-.83A20.61,20.61,0,0,1,284.42,787c-.08-.48-10.84-.19-12,.43-1.32.73-2.12,2.54-2.87,3.77Q267.78,794.21,266.24,797.33Z" transform="translate(0 -0.01)"/><path class="cls-3" d="M266.24,797.33a35.09,35.09,0,0,0-1.8,4.18c-1.34,4-1.54,8.19-1.74,12.36a6,6,0,0,0,.22,2.39c.58,1.5,2.24,2.26,3.79,2.67,6.49,1.75,13.33.11,20-.49s13.26-.16,19.7-1.61a9.84,9.84,0,0,0,2.73-1,8.5,8.5,0,0,0,3.45-4.5,5.77,5.77,0,0,0,.39-1.48c.21-2.2-1.7-4.1-3.78-4.82s-4.35-.61-6.54-.83A20.61,20.61,0,0,1,284.42,787c-.08-.48-10.84-.19-12,.43-1.32.73-2.12,2.54-2.87,3.77Q267.78,794.21,266.24,797.33Z" transform="translate(0 -0.01)"/><path class="cls-16" d="M284.09,800.51a35,35,0,0,0-1.8,4.17c-1.35,4-1.55,8.19-1.74,12.36a5.86,5.86,0,0,0,.22,2.39c.57,1.5,2.23,2.26,3.78,2.68,6.49,1.74,13.34.1,20-.5s13.27-.16,19.7-1.61a9.43,9.43,0,0,0,2.73-1,8.5,8.5,0,0,0,3.45-4.5,5.77,5.77,0,0,0,.39-1.48c.21-2.19-1.7-4.1-3.78-4.82s-4.35-.6-6.54-.83a20.6,20.6,0,0,1-18.24-17.2c-.08-.48-10.84-.2-12,.42-1.33.73-2.13,2.54-2.88,3.77C286.24,796.39,285.12,798.43,284.09,800.51Z" transform="translate(0 -0.01)"/><path class="cls-11" d="M330.62,694.28c.14,21.61-6.14,42.73-13.51,63q-4.38,12.06-9.29,23.91c-1.94,4.68-4.13,9.88-2.05,14.5-6-2.28-12.1-3.62-18.41-2.57,2.4-4.9,2.17-10.6,2.28-16a139.6,139.6,0,0,1,2.36-22,123.24,123.24,0,0,1,10.79-31.89,24.4,24.4,0,0,0,2.09-6.72c.82-5.14.18-10.42-.89-15.51a92.51,92.51,0,0,0-12.9-31.6L291,670a91,91,0,0,1-1.62,9.57c-1.41,6.69-3.06,13.39-2.81,20.12A108.78,108.78,0,0,1,285.28,721a32.55,32.55,0,0,1-2.15,8.06c-.69,1.55-1.59,3-2.13,4.61a21.13,21.13,0,0,0-.84,5.7,193.3,193.3,0,0,0,3.32,48.74c-5.57-.44-11.14,1.17-16.12,3.67a198.91,198.91,0,0,1-8.5-35.1,116.6,116.6,0,0,1,1.3-42.46,56.46,56.46,0,0,0,1-14.15c-.43-9.45-2.75-18.69-5.06-27.87l-3.52-14q-2.5-10-5-19.91c-1.11-4.41-2.23-8.92-1.88-13.46a33.27,33.27,0,0,1,1.56-7.32,81.82,81.82,0,0,1,11.07-22.64c19.27,1.08,38.77-.72,58-2.2a3.92,3.92,0,0,1,2.72.46,3.82,3.82,0,0,1,1.1,2.48l7.23,41a102.77,102.77,0,0,1,2.05,17.3c0,5.8-.9,11.58-.68,17.37C329.1,679.09,330.58,686.47,330.62,694.28Z" transform="translate(0 -0.01)"/><path class="cls-3" d="M291.05,670a91,91,0,0,1-1.62,9.57c-4.19-7.25-8.71-14.32-12.57-21.75-1-1.91-1.94-3.85-2.89-5.79l-2.85-5.8c-.53-1.09-1.06-2.18-1.54-3.29a23.84,23.84,0,0,1-1.79-5c1.4-.26,4.86,3.52,5.9,4.51a82.06,82.06,0,0,1,6,6.64,72.19,72.19,0,0,1,6.26,8.2A39.77,39.77,0,0,1,291.05,670Z" transform="translate(0 -0.01)"/><path class="cls-17" d="M307.1,471.08s-10.7,17.05-8.72,20.62-33.7-3.17-33.7-3.17,19.43-17,17.44-24.19S307.1,471.08,307.1,471.08Z" transform="translate(0 -0.01)"/><circle class="cls-17" cx="297.59" cy="452.04" r="24.19"/><path class="cls-6" d="M307.46,489a24.57,24.57,0,0,0-10.17-8.18,36,36,0,0,0-7.23-1.78l-9.65-1.7c-2.36-.42-4.89-.81-7.09.16a11.65,11.65,0,0,0-3,2.21c-3.35,3.11-6.6,6.52-10.81,8.32-1.15.49-2.35.85-3.5,1.34-4.71,2-8.23,6.26-10.22,11-2.1,4.94-2.16,10.31-2,15.68a27.71,27.71,0,0,0,.55,5.52,35.13,35.13,0,0,0,1.83,5.06,93.8,93.8,0,0,1,3.34,10.73q3.75,14.35,6.24,29a10.8,10.8,0,0,0,1.21,4,14.34,14.34,0,0,0,3.34,3.21,20.29,20.29,0,0,1,2.79,2.77,3.61,3.61,0,0,1,.91,1.48c.31,1.44-1,2.68-2,3.73a18.06,18.06,0,0,0-4.52,7.87,3.17,3.17,0,0,0-.72,2.17,3.75,3.75,0,0,1,.23,1.72,4,4,0,0,1-.91,1.41,5.34,5.34,0,0,0-1,4.28,67.94,67.94,0,0,0,23.68,5.54c2,.1,4,.1,6,.34,1.42.18,2.82.47,4.24.64a45.82,45.82,0,0,0,6.2.16c10.77-.22,21.85-.49,31.74-4.76.93-5.07-1.08-10.24-2.34-15.24-2-8-2.5-16.19-4-24.26-1-5.51-2.5-10.94-3.35-16.49a40.31,40.31,0,0,1,.48-16.7c1.35-4.78,1.76-9.66,3.16-14.43s2.38-9.94.8-14.66C319.69,493.26,313.62,488.63,307.46,489Z" transform="translate(0 -0.01)"/><path class="cls-16" d="M319.34,439.22c1.18-4.29-1.14-8.76-3.9-12.25-3-3.75-6.82-7.13-11.51-8.07-3.81-.77-7.76.16-11.64-.15-3.43-.27-6.73-1.51-10.14-2a32.09,32.09,0,0,0-9.28.35,35,35,0,0,0-8.45,2.36c-10.3,4.57-16.33,15.83-17.73,27s1.05,22.43,3.49,33.42l2.21,9.94c2.3,10.35,4.6,20.74,5.21,31.32s-.53,21.44-4.88,31.1a66.89,66.89,0,0,0,30.73-34.79c1.56-4.09,2.72-8.34,4.46-12.36,1.49-3.46,3.4-6.74,4.72-10.27a33.36,33.36,0,0,0,2.11-12.47c-.08-3.2-.61-6.38-.52-9.58s.91-6.53,3.12-8.85c2-2.05,4.75-3,7.28-4.33a30.43,30.43,0,0,0,10.19-8.5c1.59-2.08,1.68-3,2.08-5.36S318.72,441.49,319.34,439.22Z" transform="translate(0 -0.01)"/><path class="cls-17" d="M319.37,620.93c.25,2.49-.2,5,.34,7.47.41,1.84,1.36,3.5,1.92,5.3a25.38,25.38,0,0,1,.85,6.37c.08,1.8-.06,4-1.66,4.84-.7.37-1.54.37-2.27.69s-1.35,1.19-.93,1.87,1.14.57,1.8.7,1.37.81,1,1.36a1.12,1.12,0,0,1-.58.37,7.23,7.23,0,0,0-1.88.9,1.92,1.92,0,0,0-.77,1.83,1.13,1.13,0,0,0,1.37.83l.24-.09a5.14,5.14,0,0,0-.47,2c2.56,1.1,5.43-.34,7.83-1.73a29.35,29.35,0,0,0,3-1.92A15,15,0,0,0,335,639a28,28,0,0,0-.57-3.65,54.92,54.92,0,0,0-1.47-6.21c-.69-2.15-1.63-4.2-2.44-6.31-1.72-4.49-2.83-9.19-4.39-13.74a2.08,2.08,0,0,0-.75-1.19,2.12,2.12,0,0,0-1.11-.21,18.25,18.25,0,0,0-5.21.48c-1,.3-2.71,1-3.18,2s.28,1.84.73,2.67A22.39,22.39,0,0,1,319.37,620.93Z" transform="translate(0 -0.01)"/><path class="cls-3" d="M317.74,499.42A7.74,7.74,0,0,1,319,501.2c3.44,6.25,3.48,13.72,3.64,20.85.18,8,.62,16,1.06,24.05l1.31,24c.13,2.29.25,4.58.58,6.85,1.54.39,1.6,2.39,1.43,4-1.11,9.78-3.86,19.85-1,29.26a2.94,2.94,0,0,0,.67,1.3,7.73,7.73,0,0,0-4.47-.06c-1.43.3-2.81.83-4.25,1.16-1.82.41-3.88.59-5.12,2a99.24,99.24,0,0,1-3.35-12.92c-.68-4-.87-8.12-2.49-11.82-.65-1.49-1.53-2.87-2.33-4.3-4.19-7.48-6.25-15.93-8.26-24.27a35.43,35.43,0,0,1-.64-12.06,41.32,41.32,0,0,0,.5-5.55,42.64,42.64,0,0,0-.77-5.84,39.15,39.15,0,0,1,1.17-16.91c1.5-5.09,2.82-10.45,6-14.73S312.43,499.49,317.74,499.42Z" transform="translate(0 -0.01)"/><path class="cls-6" d="M318.93,498.62a7.31,7.31,0,0,1,1.28,1.79c3.44,6.24,3.48,13.72,3.64,20.85.18,8,.62,16,1.06,24l1.31,24c.13,2.29.25,4.58.58,6.85,1.54.39,1.6,2.39,1.42,4-1.1,9.78-3.85,19.84-1,29.26a2.94,2.94,0,0,0,.67,1.3,7.73,7.73,0,0,0-4.47-.06c-1.43.3-2.81.83-4.25,1.15-1.82.42-3.88.59-5.12,2a98.4,98.4,0,0,1-3.32-13c-.68-4-.87-8.11-2.49-11.81a46.93,46.93,0,0,0-2.33-4.3c-4.2-7.48-6.25-15.94-8.26-24.28a35.43,35.43,0,0,1-.64-12.06,26.06,26.06,0,0,0-.27-11.39,39.1,39.1,0,0,1,1.17-16.9c1.5-5.09,2.82-10.45,6-14.73S313.62,498.7,318.93,498.62Z" transform="translate(0 -0.01)"/><g class="cls-12"><path d="M315.44,427c-3-3.75-6.82-7.13-11.51-8.07-3.81-.77-7.76.16-11.64-.15-3.43-.27-6.73-1.51-10.14-2a32.09,32.09,0,0,0-9.28.35,35,35,0,0,0-8.45,2.36,25.6,25.6,0,0,0-4.17,2.37,35.07,35.07,0,0,1,7.47-2,32,32,0,0,1,9.27-.35c3.42.44,6.71,1.67,10.15,1.94,3.87.31,7.82-.61,11.64.15,4.69.94,8.53,4.33,11.5,8.08,2.77,3.48,5.08,8,3.91,12.25-.62,2.26-2.06,4.24-2.45,6.57s-.49,3.28-2.09,5.36a30.18,30.18,0,0,1-7.34,6.83c.77-.36,1.56-.72,2.31-1.11a30.43,30.43,0,0,0,10.19-8.5c1.59-2.08,1.68-3,2.08-5.36s1.83-4.3,2.45-6.57C320.52,434.93,318.2,430.46,315.44,427Z" transform="translate(0 -0.01)"/><path d="M297.34,464a10,10,0,0,1,1.35-1.17c-2.31,1.12-4.74,2.1-6.51,4-2.21,2.31-3,5.65-3.12,8.85s.45,6.38.52,9.57a33.41,33.41,0,0,1-2.11,12.48c-1.32,3.53-3.23,6.8-4.72,10.27-1.73,4-2.89,8.26-4.45,12.35A67,67,0,0,1,252.89,552c-.06.13-.11.27-.17.4a66.89,66.89,0,0,0,30.73-34.79c1.56-4.09,2.72-8.34,4.46-12.36,1.49-3.46,3.4-6.74,4.72-10.27a33.36,33.36,0,0,0,2.11-12.47c-.08-3.2-.61-6.38-.52-9.58S295.13,466.3,297.34,464Z" transform="translate(0 -0.01)"/></g></svg>